<svg xmlns="http://www.w3.org/2000/svg" width="100" height="100" viewBox="0 0 1000 1000">
  <path d="M711 407q0-62-45-115t-130-95q25-18 25-47 0-25-18-42.5T500 90q-26 0-43.5 17.5T439 150q0 13 7 26t18 21q-85 42-130 95t-45 115q0 32 9 65 15 55 54 118l-34 109q0 18 41 29t109 17q-22 19-46.5 26.5T368 779q-20 0-61-5-43-4-66-4-34 0-64.5 8.5T116 809l32 101q36-25 63-35t54-10q18 0 56 6 33 4 55.5 6.5T431 880q33-4 69-34 36 30 69 34 32 0 57-2.5t53-6.5q38-6 56-6 27 0 54 10t63 35l32-101q-29-22-60-30.5t-65-8.5q-23 0-66 4-41 5-61 5-29 0-53.5-7.5T532 745q73 0 111.5-16t38.5-30l-34-109q39-63 54-118 9-33 9-65z" style="fill:#fff"/>
  <path d="M520 480h-40v-60h-60v-40h60v-60h40v60h60v40h-60v60zm191-73q0-62-45-115t-130-95q25-18 25-47 0-25-18-42.5T500 90q-26 0-43.5 17.5T439 150q0 13 7 26t18 21q-85 42-130 95t-45 115q0 32 9 65 15 55 54 118l-34 109q0 18 41 29t109 17q-22 19-46.5 26.5T368 779q-20 0-61-5-43-4-66-4-34 0-64.5 8.5T116 809l32 101q36-25 63-35t54-10q18 0 56 6 33 4 55.5 6.5T431 880q33-4 69-34 36 30 69 34 32 0 57-2.5t53-6.5q38-6 56-6 27 0 54 10t63 35l32-101q-29-22-60-30.5t-65-8.5q-23 0-66 4-41 5-61 5-29 0-53.5-7.5T532 745q73 0 111.5-16t38.5-30l-34-109q39-63 54-118 9-33 9-65zM500 667q-38 0-78 5t-68 14l9-40q28-7 64-11.5t73-4.5q33 0 71 4.5t66 11.5l9 40q-5-2-6-2-26-7-56.5-12t-83.5-5zm0-69q-32 0-65 4t-64 10l10-40q23-6 54.5-8.5T500 561q27 0 61 2.5t58 8.5l10 40q-30-7-61-10.5t-68-3.5z"/>
</svg>