<svg xmlns="http://www.w3.org/2000/svg" width="100" height="100" viewBox="0 0 1000 1000">
  <path d="M480 213q-32 8-56 48t-24 97q-66-49-143-49-66 0-111.5 37.5T100 445q0 48 32.5 105.5T234 671v167q0 15 21 28t58 23 85.5 15.5T500 910q54 0 102.5-5.5T688 889t57.5-23 20.5-28V671q69-63 101.5-120.5T900 445q0-61-45-98.5T743 309q-36 0-73 12t-70 37q0-57-24-97t-56-48v-53h40v-40h-40V80h-40v40h-40v40h40v53z" style="fill:#fff"/>
  <path d="M480 213q-32 8-56 48t-24 97q-66-49-143-49-66 0-111.5 37.5T100 445q0 48 32.5 105.5T234 671v167q0 15 21 28t58 23 85.5 15.5T500 910q54 0 102.5-5.5T688 889t57.5-23 20.5-28V671q69-63 101.5-120.5T900 445q0-61-45-98.5T743 309q-36 0-73 12t-70 37q0-57-24-97t-56-48v-53h40v-40h-40V80h-40v40h-40v40h40v53zm20 237q3-20 10.5-34t20.5-30q16-20 16-31 0-37-15.5-64.5T500 263t-31.5 27.5T453 355q0 11 16 31 13 16 20.5 30t10.5 34zm16 155q0-68 19.5-120.5t52-85.5 72-49.5T738 333q57 0 96 31t39 83q0 42-29.5 93.5T751 650q-8 7-10 13t-2 14q-21-20-87.5-33.5T500 630t-151.5 13.5T261 677q0-9-2-14.5T249 650q-63-58-92.5-109.5T127 447q0-52 39-83t96-31q40 0 79 16.5t71.5 49.5 52 85.5T484 605h32zm23 0q62 2 108.5 11t77.5 21q60-56 88-103.5t28-84.5q0-41-29-63.5T739 363q-34 0-69 14.5t-64.5 45T558 499t-19 106zm-78 0q-1-60-19-106t-47.5-76.5-64.5-45-69-14.5q-44 0-73 22.5T159 449q0 37 28 84.5T275 637q31-12 77.5-21T461 605zm278 168q-21-20-87.5-33.5T500 726t-151.5 13.5T261 773v-35q21-20 87.5-33.5T500 691t151.5 13.5T739 738v35zm0 65q-21-20-87.5-33.5T500 791t-151.5 13.5T261 838v-35q21-20 87.5-33.5T500 756t151.5 13.5T739 803v35zM575 376q-25 23-43.5 57T500 515q-12-49-31-83t-44-56q0-65 22.5-101.5T500 238q31 0 53 36.5T575 376z"/>
</svg>