<svg xmlns="http://www.w3.org/2000/svg" width="100" height="100" viewBox="0 0 1000 1000">
  <path d="M307 226q-5 7-13 16-5 5-8 9-12 15-19 27-1 3-4 11-3 11-6 19-1 7-6 18l-3 6q-3 7-10 17-6 10-8 15-5 13-13 29t-11 24q-1 3-6 13-6 12-10 21-1 2-6 11-8 18-18 31l-2 2q-14 17-23 29.5T129 549q0 3-1 9-2 16-2 23 0 22 6 42 10 23 27 36 10 7 22.5 10t25.5 3q4 0 8-1h6l3 3q7 11 10 14 9 9 25 9 18-3 31-16 7-12 24-29 8-10 22-24l19-15 19-14q14-8 26-15 30-17 42-22 11-5 29-14 14-5 21-9 0 33-13.5 60T438 659q-7 9-24 30-40 48-57 79-15 29-23 61.5t-8 70.5h555q0-78-3-126t-10-100q-1-8-1-12-3-39-12-82.5T833 495q-7-26-18-54.5T791 389q-21-46-56-86-26-33-53-54-20-15-45-29-7-4-10-5-21-11-33-15-33-13-56-16-19-31-30.5-47T475 100l-5 10q-9 22-18 42.5T441 182q-23 0-36 2-5-6-16.5-17T363 144t-29-23.5-27-18.5v124z" style="fill:#fff"/>
  <path d="M303 367q0-36 23-50t66-14q0 35-26.5 49.5T303 367zm119-134q-2 0-10 2-17 2-27 5-22 7-48 21 22-20 45-36 15-10 26-13t24-4zm-115-7q-5 7-13 16-5 5-8 9-12 15-19 27-1 3-4 11-3 11-6 19-1 7-6 18l-3 6q-3 7-10 17-6 10-8 15-5 13-13 29t-11 24q-1 3-6 13-6 12-10 21-1 2-6 11-8 18-18 31l-2 2q-14 17-23 29.5T129 549q0 3-1 9-2 16-2 23 0 22 6 42 10 23 27 36 10 7 22.5 10t25.5 3q4 0 8-1h6l3 3q7 11 10 14 9 9 25 9 18-3 31-16 7-12 24-29 8-10 22-24l19-15 19-14q14-8 26-15 30-17 42-22 11-5 29-14 14-5 21-9 0 33-13.5 60T438 659q-7 9-24 30-40 48-57 79-15 29-23 61.5t-8 70.5h555q0-78-3-126t-10-100q-1-8-1-12-3-39-12-82.5T833 495q-7-26-18-54.5T791 389q-21-46-56-86-26-33-53-54-20-15-45-29-7-4-10-5-21-11-33-15-33-13-56-16-19-31-30.5-47T475 100l-5 10q-9 22-18 42.5T441 182q-23 0-36 2-5-6-16.5-17T363 144t-29-23.5-27-18.5v124zm-61 434-26-14q12-22 19-30t12-8q3 0 9 3l4 2q0 1 1 3v4q0 10-12 28-5 8-7 12zm255-142v-16q0-22 8-33.5t31-13.5q0 38-7 51.5T515 520q-3 0-8-1-4-1-6-1zm350 356h-51q0-68-5-123-4-92-25-188-15-66-37-122.5T682 344q-24-31-47.5-52.5T585 253q-31-23-46-23v-26q81 18 146 85 27 26 48 61t44 85q22 47 38 113 18 75 28 161 4 48 6 92t2 73zM182 584q0-32 9.5-43.5T224 529q0 36-9.5 45.5T182 584z"/>
</svg>