<svg xmlns="http://www.w3.org/2000/svg" width="100" height="100" viewBox="0 0 1000 1000">
  <path d="M803 847q0-11-5-26.5T784 783l-1-1q-11-28-17.5-46t-6.5-31q0-18 4-29t15-28q13-20 23.5-42t22.5-60l51-228q25 0 43-18t18-43q0-26-18-43.5T875 196t-43 18-18 43q0 14 6.5 28t17.5 21L710 518l-2-284q23-4 38-21t15-39q0-26-17-43.5T700 113q-26 0-43.5 18T639 174q0 18 10 33.5t25 21.5l-94 274-65-290q21-6 35-23t14-39q0-27-18.5-45.5T500 87q-26 0-45 18.5T436 151q0 23 13.5 40t35.5 22l-65 290-94-274q15-6 25-21.5t10-33.5q0-26-17.5-43.5T300 113q-25 0-43 18t-18 43q0 23 15.5 39.5T292 234l-2 284-128-212q24-18 24-49 0-26-17.5-43.5T125 196q-25 0-43 18t-18 43 18.5 43 42.5 18l51 228q16 50 34 82 5 9 13 21 10 16 14 27t4 29q0 13-6 31.5T217 782q-10 24-15 38.5t-5 26.5q0 13 27.5 25.5T299 894q60 11 134 14 44 2 67 2 28 0 76-2 44-3 99-10 60-9 94-22.5t34-28.5z" style="fill:#fff"/>
  <path d="M500 624q45 0 67 1 56 3 104 9 49 7 74 13l-9 37q-25-7-64-11-32-4-105-8-21-1-67-1t-68 1q-39 1-89 7-41 4-79 12l-9-37q29-7 86-14 46-7 91-8 22-1 68-1zm0 120q-46 0-68 1-35 1-86 7-62 8-96 19l16-45q35-10 79-14 53-6 87-7 22-1 68-1 45 0 67 1 60 3 106 9 34 4 61 12l16 45q-38-11-77-16-56-9-106-10-22-1-67-1zm303 103q0-11-5-26.5T784 783l-1-1q-11-28-17.5-46t-6.5-31q0-18 4-29t15-28q13-20 23.5-42t22.5-60l51-228q25 0 43-18t18-43q0-26-18-43.5T875 196t-43 18-18 43q0 14 6.5 28t17.5 21L710 518l-2-284q23-4 38-21t15-39q0-26-17-43.5T700 113q-26 0-43.5 18T639 174q0 18 10 33.5t25 21.5l-94 274-65-290q21-6 35-23t14-39q0-27-18.5-45.5T500 87q-26 0-45 18.5T436 151q0 23 13.5 40t35.5 22l-65 290-94-274q15-6 25-21.5t10-33.5q0-26-17.5-43.5T300 113q-25 0-43 18t-18 43q0 23 15.5 39.5T292 234l-2 284-128-212q24-18 24-49 0-26-17.5-43.5T125 196q-25 0-43 18t-18 43 18.5 43 42.5 18l51 228q16 50 34 82 5 9 13 21 10 16 14 27t4 29q0 13-6 31.5T217 782q-10 24-15 38.5t-5 26.5q0 13 27.5 25.5T299 894q60 11 134 14 44 2 67 2 28 0 76-2 44-3 99-10 60-9 94-22.5t34-28.5z"/>
</svg>