<svg xmlns="http://www.w3.org/2000/svg" width="100" height="100" viewBox="0 0 1000 1000">
  <path d="M536 197q25-18 25-47 0-25-18-42.5T500 90q-26 0-43.5 17.5T439 150q0 13 7 26t18 21q-84 42-129.5 94.5T289 405q0 41 17 92 19 49 46 93l-34 109q0 15 44 30.5T468 745q-22 19-46.5 26.5T368 779q-20 0-61-5-43-4-66-4-34 0-64.5 8.5T116 809l32 101q36-25 63-35t54-10q18 0 56 6 33 4 55.5 6.5T431 880q33-4 69-34 36 30 69 34 32 0 57-2.5t53-6.5q38-6 56-6 27 0 54 10t63 35l32-101q-29-22-60-30.5t-65-8.5q-23 0-66 4-41 5-61 5-29 0-53.5-7.5T532 745q62 0 106-15.5t44-30.5l-34-109q27-44 46-93 17-51 17-92 0-61-45-113.5T536 197z" style="fill:#fff"/>
  <path d="M536 197q25-18 25-47 0-25-18-42.5T500 90q-26 0-43.5 17.5T439 150q0 13 7 26t18 21q-84 42-129.5 94.5T289 405q0 41 17 92 19 49 46 93l-34 109q0 15 44 30.5T468 745q-22 19-46.5 26.5T368 779q-20 0-61-5-43-4-66-4-34 0-64.5 8.5T116 809l32 101q36-25 63-35t54-10q18 0 56 6 33 4 55.5 6.5T431 880q33-4 69-34 36 30 69 34 32 0 57-2.5t53-6.5q38-6 56-6 27 0 54 10t63 35l32-101q-29-22-60-30.5t-65-8.5q-23 0-66 4-41 5-61 5-29 0-53.5-7.5T532 745q62 0 106-15.5t44-30.5l-34-109q27-44 46-93 17-51 17-92 0-61-45-113.5T536 197zm144 213q0 37-15 82-11 31-25.5 55T620 576q-70-14-120-14-49 0-120 14-5-5-19.5-29T335 492q-15-45-15-82 0-27 7.5-51t26.5-48 55-49 91-52q55 26 91 51.5t55 49.5 26.5 48 7.5 51zM500 751q28 33 55 45.5t58 12.5q16 0 54-6 44-6 69-6 57 0 112 25l-13 48q-50-34-112-34-24 0-68 6-41 6-60 6-28 0-51-9.5T500 805q-21 24-44 33.5t-51 9.5q-19 0-59-5-44-7-67-7-30 0-58 8t-56 28l-13-50q55-25 112-25 25 0 69 6 38 6 55 6 30 0 57-13t55-45zm0-121q-47 0-81.5 3.5T355 650l15-44q34-11 61-14.5t69-3.5 69 3.5 61 14.5l15 44q-29-13-63.5-16.5T500 630zm-2 31q21 0 48.5 1.5t52.5 5 40.5 9T655 688q0 13-40.5 20.5T498 716t-116.5-7.5T341 688q0-6 15.5-11t41.5-9 52.5-5.5T498 661zm2-541q11 0 20.5 8t10.5 22q0 12-8 21t-23 9q-31-2-31-30 0-12 10-21t21-9zm20 360v-60h60v-40h-60v-60h-40v60h-60v40h60v60h40z"/>
</svg>