<svg xmlns="http://www.w3.org/2000/svg" width="100" height="100" viewBox="0 0 1000 1000">
  <path d="M766 671q69-63 101.5-120.5T900 445q0-61-45-98.5T743 309q-36 0-73 12t-70 37q0-57-24-97t-56-48v-53h40v-40h-40V80h-40v40h-40v40h40v53q-32 8-56 48t-24 97q-66-49-143-49-66 0-111.5 37.5T100 445q0 48 32.5 105.5T234 671v167q0 15 21 28t58 23 85.5 15.5T500 910q54 0 102.5-5.5T688 889t57.5-23 20.5-28V671z" style="fill:#fff"/>
  <path d="M516 605q0-68 19.5-120.5t52-85.5 72-49.5T738 333q57 0 96 31t39 83q0 42-29.5 93.5T751 650q-22-15-83-29.5T516 605zm250 66q69-63 101.5-120.5T900 445q0-61-45-98.5T743 309q-36 0-73 12t-70 37q0-57-24-97t-56-48v-53h40v-40h-40V80h-40v40h-40v40h40v53q-32 8-56 48t-24 97q-66-49-143-49-66 0-111.5 37.5T100 445q0 48 32.5 105.5T234 671v167q0 15 21 28t58 23 85.5 15.5T500 910q54 0 102.5-5.5T688 889t57.5-23 20.5-28V671zM575 376q-25 23-43.5 57T500 515q-12-49-31-83t-44-56q0-65 22.5-101.5T500 238q31 0 53 36.5T575 376zm-91 229q-90 1-151.5 15.5T249 650q-63-58-92.5-109.5T127 447q0-52 39-83t96-31q40 0 79 16.5t71.5 49.5 52 85.5T484 605zm255 143q-21-20-87.5-33.5T500 701t-151.5 13.5T261 748v-71q21-20 87.5-33.5T500 630t151.5 13.5T739 677v71zm0 65q-21-20-87.5-33.5T500 766t-151.5 13.5T261 813v-40q21-20 87.5-33.5T500 726t151.5 13.5T739 773v40zm-478 25q21-20 87.5-33.5T500 791t151.5 13.5T739 838q-21 20-87.5 33.5T500 885t-151.5-13.5T261 838z"/>
</svg>