<svg xmlns="http://www.w3.org/2000/svg" width="100" height="100" viewBox="0 0 1000 1000">
  <path d="M800 890q-1-67-14.5-127.5T748 657q-23-45-54.5-71.5T626 555q21-8 37-38 8-15 13.5-33t5.5-32q0-41-15-75-11-24-32-47-24-26-51-40 8-8 17-26 10-26 10-44 0-26-13-49-11-24-38-43-29-18-60-18-30 0-60 18-27 19-38 43-13 23-13 49 0 18 10 44 9 18 17 26-27 14-51 40-21 23-32 47-15 34-15 75 0 14 5.5 32t13.5 33q16 30 37 38-36 4-67.5 30.5T252 657q-24 45-37.5 105.5T200 890h600z" style="fill:#fff"/>
  <path d="M800 890q-1-67-14.5-127.5T748 657q-23-45-54.5-71.5T626 555q21-8 37-38 8-15 13.5-33t5.5-32q0-41-15-75-11-24-32-47-24-26-51-40 8-8 17-26 10-26 10-44 0-26-13-49-11-24-38-43-29-18-60-18-30 0-60 18-27 19-38 43-13 23-13 49 0 18 10 44 9 18 17 26-27 14-51 40-21 23-32 47-15 34-15 75 0 14 5.5 32t13.5 33q16 30 37 38-36 4-67.5 30.5T252 657q-24 45-37.5 105.5T200 890h600zM500 143q16 2 19.5 2.5T533 149l6 4q10 6 12.5 8t11.5 12q7 11 10 20t5 27q0 15-7 36-2 4-3 8l-6 6-2 2-6 8-3 2q-11 8-11 11 0 4 13 9 19 7 42 27 3 2 8 6 10 10 17 19t14 23q15 30 15 75-3 16-6 26t-9 24l-1 4-6 8q-5 7-7.5 9.5T607 534q-26 15-26 23 0 7 14 14 37 4 69.5 29.5T721 669q22 39 34 87.5T768 860H232q1-55 13-103.5t34-87.5q25-43 57-68.5t69-29.5q14-7 14-14 0-8-26-23-10-8-12.5-10.5T373 514l-6-8-1-4q-7-15-9.5-24.5T351 452q0-45 15-75 7-14 14-23t17-19q5-4 8-6 23-20 42-27 13-5 13-9 0-3-11-11l-3-2q-5-6-6-7.5t-2-2.5l-6-6q-1-4-3-8-7-21-7-36 2-18 5-27t10-20l1-1q8-9 11.5-11.5T467 149q10-3 13.5-3.5T500 143z"/>
</svg>