<svg xmlns="http://www.w3.org/2000/svg" width="100" height="100" viewBox="0 0 1000 1000">
  <path d="m710 518-2-284q23-3 38-20 15-18 15-40 0-23-16-41-18-20-45-20-26 0-43 17-18 18-18 44 0 20 11 36 10 13 24 19l-94 274-65-290q17-4 32-19 17-19 17-43 0-27-17-44-20-20-47-20t-47 20q-17 17-17 44 0 24 17 43 15 15 32 19l-65 290-94-274q14-6 24-19 11-16 11-36 0-26-18-44-17-17-43-17-27 0-45 20-16 18-16 41 0 22 15 40 15 17 38 20l-2 284-128-212q13-9 19-24 5-13 5-25 0-27-19-44-17-17-42-17-29 0-47 21-14 17-14 40 0 22 15 40 18 21 46 21l51 228q10 33 19.5 54t19.5 37l7 11q11 17 15 27.5t4 29.5q0 20-16 57l-5 12q-12 28-17.5 44t-5.5 29q0 15 31.5 28t86.5 22q51 7 93 10 44 3 92 3t92-3q42-3 93-10 55-9 86.5-22t31.5-28q0-13-5.5-29T780 774l-5-12q-16-37-16-57 0-19 4-29.5t15-27.5l7-11q10-16 19.5-37t19.5-54l51-228q28 0 46-21 15-18 15-40 0-23-14-40-18-21-47-21-25 0-42 17-19 17-19 44 0 12 5 25 6 15 19 24z" style="fill:#fff"/>
  <path d="M875 293q-17 0-28-13-8-10-8-23 0-15 12-27 9-9 24-9 16 0 27 13 9 11 9 23 0 13-8 23-11 13-28 13zm-175-83q-16 0-27-13-9-11-9-23 0-15 12-27 9-9 24-9t26 11q10 10 10 25 0 13-8 23-11 13-28 13zm-400 0q-17 0-28-13-8-10-8-23 0-15 10-25 11-11 26-11t24 9q12 12 12 27 0 12-9 23-11 13-27 13zm-175 83q-17 0-28-13-8-10-8-23 0-12 9-23 11-13 27-13 15 0 24 9 12 12 12 27 0 13-8 23-11 13-28 13zm375-103q-17 0-29-14-10-12-10-25 0-16 11-27 12-12 28-12t28 12q11 11 11 27 0 13-10 25-12 14-29 14zm0 514q-50 0-95 3-41 2-92 10-2 0-13 2-23 4-34 7 4-14 4-24 0-11-6-28 18-5 48-9 39-6 92-9 30-2 96-2t96 2q53 3 92 9 30 4 48 9-6 17-6 28 0 10 4 24-11-3-34-7-11-2-13-2-51-8-92-10-45-3-95-3zm0 60q-49 0-94 3-54 3-93 10-38 7-75 18l12-34q32-9 63-14 54-8 92-10 45-3 95-3t95 3q38 2 92 10 31 5 63 14l12 34q-37-11-75-18-39-7-93-10-45-3-94-3zm0 116q-49 0-93-3-41-2-92-10-40-7-64-15.5T227 835q0-5 24.5-13.5T314 807q48-7 92-10t94-3q50 0 94 3t92 10q38 6 62.5 14.5T773 835q0 8-24 16.5T685 867q-51 8-92 10-44 3-93 3zm59-346q13 0 35 2h4l87-267v278h2l2 1q6 1 15 3 10 1 13 2l127-213-51 207q-7 24-13 36.5T764 612q-12 19-19 35-34-8-57-11-40-6-92-9-47-3-96-3t-96 3q-52 3-92 9-23 3-57 11-7-16-19-35-10-16-16-28.5T207 547l-51-207 127 213q3-1 13-2 9-2 15-3l2-1h2V269l87 267h4q22-2 35-2l59-287zm151-16-2-284q23-3 38-20 15-18 15-40 0-23-16-41-18-20-45-20-26 0-43 17-18 18-18 44 0 20 11 36 10 13 24 19l-94 274-65-290q17-4 32-19 17-19 17-43 0-27-17-44-20-20-47-20t-47 20q-17 17-17 44 0 24 17 43 15 15 32 19l-65 290-94-274q14-6 24-19 11-16 11-36 0-26-18-44-17-17-43-17-27 0-45 20-16 18-16 41 0 22 15 40 15 17 38 20l-2 284-128-212q13-9 19-24 5-13 5-25 0-27-19-44-17-17-42-17-29 0-47 21-14 17-14 40 0 22 15 40 18 21 46 21l51 228q10 33 19.5 54t19.5 37l7 11q11 17 15 27.5t4 29.5q0 20-16 57l-5 12q-12 28-17.5 44t-5.5 29q0 15 31.5 28t86.5 22q51 7 93 10 44 3 92 3t92-3q42-3 93-10 55-9 86.5-22t31.5-28q0-13-5.5-29T780 774l-5-12q-16-37-16-57 0-19 4-29.5t15-27.5l7-11q10-16 19.5-37t19.5-54l51-228q28 0 46-21 15-18 15-40 0-23-14-40-18-21-47-21-25 0-42 17-19 17-19 44 0 12 5 25 6 15 19 24z"/>
</svg>