<svg xmlns="http://www.w3.org/2000/svg" width="100" height="100" viewBox="0 0 1000 1000">
  <path d="M200 140v120l90 70v340l-60 40v90h-60v90h660v-90h-60v-90l-60-40V330l90-70V110H665v65h-90v-65H425v65h-90v-65H200v30z" style="fill:#fff"/>
  <path d="M200 140v120l90 70v340l-60 40v90h-60v90h660v-90h-60v-90l-60-40V330l90-70V110H665v65h-90v-65H425v65h-90v-65H200v30zm0 720v-30h600v30H200zm540-120v60H260v-60h480zm-10-30H270l50-30h360zM320 345h360v305H320V345zm0-30-75-50h510l-75 50H320zm-90-80v-95h75v65h150v-65h90v65h150v-65h75v95H230z"/>
</svg>